<svg width="28" height="31" viewBox="0 0 28 31" fill="none" xmlns="http://www.w3.org/2000/svg">
<path opacity="0.78" fill-rule="evenodd" clip-rule="evenodd" d="M12.6312 9.80884C12.6512 9.54834 12.8684 9.34718 13.1297 9.34718H13.5475C13.8044 9.34718 14.0195 9.54183 14.045 9.79743L14.6667 16.0138L19.0814 18.5366C19.2372 18.6256 19.3333 18.7912 19.3333 18.9707V19.3592C19.3333 19.6889 19.0199 19.9284 18.7018 19.8416L12.3987 18.1226C12.1673 18.0595 12.0133 17.841 12.0317 17.6018L12.6312 9.80884Z" fill="#FF9066"/>
<path opacity="0.901274" d="M5.85254 1.19015C5.94785 0.790551 6.45754 0.669532 6.72168 0.984097L8.52051 3.12863C10.2036 2.41195 12.0552 2.01339 14 2.01339C21.7319 2.01339 27.9998 8.28157 28 16.0134C28 23.7454 21.732 30.0134 14 30.0134C6.26801 30.0134 0 23.7454 0 16.0134C3.22093e-05 14.7004 0.180533 13.4294 0.518555 12.2243L3.08594 12.945C2.8086 13.9339 2.66702 14.9629 2.66699 16.0134C2.66699 22.2726 7.74077 27.3474 14 27.3474C20.2592 27.3474 25.333 22.2726 25.333 16.0134C25.3328 9.75433 20.2591 4.68039 14 4.68039C12.7318 4.68039 11.4968 4.88883 10.332 5.28683L12.1328 7.43332C12.3974 7.74859 12.1892 8.23033 11.7783 8.25363L4.7334 8.65304C4.39924 8.67188 4.14112 8.36339 4.21875 8.03781L5.85254 1.19015Z" fill="#FF9066"/>
</svg>
